<?xml version="1.0" encoding="utf-8"?>
<!-- Generator: Adobe Illustrator 16.0.0, SVG Export Plug-In . SVG Version: 6.00 Build 0)  -->
<!DOCTYPE svg PUBLIC "-//W3C//DTD SVG 1.1//EN" "http://www.w3.org/Graphics/SVG/1.1/DTD/svg11.dtd">
<svg version="1.1" id="_1" xmlns="http://www.w3.org/2000/svg" xmlns:xlink="http://www.w3.org/1999/xlink" x="0px" y="0px"
	 width="1235.901px" height="305.984px" viewBox="0 0 1235.901 305.984" enable-background="new 0 0 1235.901 305.984"
	 xml:space="preserve">
<g>
	<path fill="#FFFFFF" d="M305.205,43.618c11.647-1.909,26.609-3.045,42.435-3.045c27.31,0,46.277,5.655,59.665,16.964
		c14.088,11.48,22.79,28.783,22.79,53.744c0,26.004-8.871,45.481-22.79,58.097c-14.618,13.217-37.745,19.911-66.095,19.911
		c-15.656,0-27.307-0.868-36.005-1.909V43.618z M331.814,167.37c3.649,0.702,9.396,0.702,14.788,0.702
		c34.605,0.17,55.313-18.874,55.313-55.919c0.171-32.359-18.438-50.702-51.833-50.702c-8.533,0-14.619,0.606-18.269,1.475V167.37z"
		/>
	<path fill="#FFFFFF" d="M481.223,52.751c0,8-5.92,14.259-15.128,14.259c-9.059,0-14.787-6.259-14.787-14.259
		c0-8.262,6.089-14.523,14.956-14.523C475.303,38.228,481.054,44.489,481.223,52.751z M452.879,187.814V82.234h26.772v105.58
		H452.879z"/>
	<path fill="#FFFFFF" d="M508.364,116.236c0-14.258-0.365-24.432-0.875-34.001h23.13l0.869,20.178h0.871
		c5.222-14.959,17.571-22.619,28.878-22.619c2.609,0,3.99,0.266,6.261,0.7v25.134c-2.271-0.435-4.523-0.87-7.832-0.87
		c-12.879,0-21.575,8.263-23.829,20.178c-0.528,2.344-0.868,5.219-0.868,8.264v54.615h-26.604V116.236z"/>
	<path fill="#FFFFFF" d="M602.272,142.504c0.7,19.043,15.659,27.308,32.527,27.308c12.35,0,21.217-1.74,29.216-4.784l4.011,18.438
		c-9.038,3.648-21.747,6.428-36.875,6.428c-34.268,0-54.449-20.953-54.449-53.309c0-29.217,17.74-56.791,51.668-56.791
		c34.268,0,45.387,28.177,45.387,51.401c0,4.954-0.34,8.868-0.684,11.309H602.272z M648.718,123.8
		c0.169-9.738-4.18-25.738-21.918-25.738c-16.53,0-23.298,14.959-24.528,25.738H648.718z"/>
	<path fill="#FFFFFF" d="M772.904,184.505c-5.562,2.609-16.699,5.389-29.918,5.389c-32.865,0-54.445-20.953-54.445-53.744
		c0-31.563,21.749-56.355,58.795-56.355c9.737,0,19.648,2.175,25.737,5.051l-4.689,19.913c-4.349-1.911-10.609-4.085-20.178-4.085
		c-20.348,0-32.527,14.958-32.358,34.172c0,21.749,14.088,34.096,32.358,34.096c9.213,0,15.829-2.004,21.05-4.178L772.904,184.505z"
		/>
	<path fill="#FFFFFF" d="M826.474,52.052v30.183h25.216v19.913h-25.216v46.616c0,12.783,3.48,19.479,13.56,19.479
		c4.521,0,8.001-0.604,10.438-1.306l0.526,20.443c-4.005,1.475-10.965,2.514-19.301,2.514c-9.742,0-18.099-3.213-22.961-8.604
		c-5.751-6.088-8.357-15.66-8.357-29.483v-49.66h-15.131V82.234h15.131V58.408L826.474,52.052z"/>
	<path fill="#FFFFFF" d="M971.011,134.07c0,38.787-27.307,56.091-54.275,56.091c-29.915,0-52.876-20.615-52.876-54.448
		c0-34.605,22.792-55.919,54.615-55.919C949.963,79.794,971.011,101.978,971.011,134.07z M891.526,135.11
		c0,20.349,9.913,35.74,26.081,35.74c15.132,0,25.927-14.958,25.927-36.175c0-16.436-7.489-35.308-25.571-35.308
		C898.997,99.368,891.526,117.542,891.526,135.11z"/>
	<path fill="#FFFFFF" d="M992.929,113.626c0-12.083-0.362-22.256-0.872-31.392h23.298l1.4,15.828h0.511
		c4.71-8.263,16.188-18.268,33.757-18.268c18.437,0,37.389,12.01,37.389,45.311v62.709h-26.609v-59.663
		c0-15.13-5.749-26.608-20.181-26.608c-10.607,0-17.906,7.564-20.877,15.562c-0.866,2.441-1.04,5.656-1.04,8.7v62.01h-26.775
		V113.626z"/>
	<path fill="#FFFFFF" d="M1135.72,142.504c0.702,19.043,15.479,27.308,32.53,27.308c12.347,0,21.218-1.74,29.216-4.784l3.818,18.438
		c-9.035,3.648-21.555,6.428-36.688,6.428c-34.263,0-54.442-20.953-54.442-53.309c0-29.217,17.739-56.791,51.476-56.791
		c34.269,0,45.575,28.177,45.575,51.401c0,4.954-0.339,8.868-0.868,11.309H1135.72z M1181.996,123.8
		c0.342-9.738-4.007-25.738-21.746-25.738c-16.527,0-23.485,14.959-24.529,25.738H1181.996z"/>
</g>
<g>
	<path fill="#FFFFFF" d="M273.205,217.104c4.713-0.804,10.797-1.194,17.191-1.194c11.031,0,18.62,2.229,24.057,6.787
		c5.77,4.636,9.192,11.677,9.192,21.748c0,10.464-3.598,18.386-9.192,23.51c-5.828,5.359-15.177,7.98-26.696,7.98
		c-6.317,0-11.03-0.313-14.552-0.705V217.104z M284.001,267.152c1.428,0.234,3.755,0.234,5.906,0.234
		c14.081,0.078,22.394-7.588,22.394-22.629c0.079-13.025-7.432-20.458-20.946-20.458c-3.442,0-5.926,0.234-7.354,0.547V267.152z"/>
	<path fill="#FFFFFF" d="M343.791,216.3v59.087h-10.699V216.3H343.791z"/>
	<path fill="#FFFFFF" d="M356.188,217.104c3.99-0.726,10.073-1.194,16.313-1.194c8.469,0,14.224,1.35,18.228,4.713
		c3.188,2.721,5.027,6.789,5.027,11.835c0,7.586-5.104,12.79-10.62,14.785v0.235c4.146,1.604,6.709,5.767,8.233,11.44
		c1.838,7.354,3.345,14.141,4.637,16.469h-11.11c-0.88-1.761-2.328-6.552-4.009-13.906c-1.683-7.764-4.479-10.249-10.541-10.404
		h-5.439v24.311h-10.718V217.104z M366.906,243.252h6.396c7.277,0,11.833-3.932,11.833-9.761c0-6.474-4.556-9.426-11.599-9.426
		c-3.442,0-5.593,0.234-6.631,0.469V243.252z"/>
	<path fill="#FFFFFF" d="M439.095,249.158h-22.316v17.349h24.957v8.88H406.08V216.3h34.285v8.881h-23.586v15.178h22.316V249.158z"/>
	<path fill="#FFFFFF" d="M493.542,273.626c-2.562,1.272-8.154,2.641-15.273,2.641c-18.796,0-30.139-11.755-30.139-29.75
		c0-19.421,13.514-31.174,31.488-31.174c7.12,0,12.243,1.526,14.395,2.641l-2.311,8.546c-2.893-1.192-6.725-2.229-11.596-2.229
		c-11.989,0-20.712,7.511-20.712,21.749c0,12.946,7.599,21.26,20.634,21.26c4.4,0,8.938-0.879,11.756-2.151L493.542,273.626z"/>
	<path fill="#FFFFFF" d="M515.759,225.337h-16.82V216.3h44.554v9.037h-16.937v50.05h-10.797V225.337z"/>
	<path fill="#FFFFFF" d="M600.427,245.247c0,19.734-11.992,31.097-28.301,31.097c-16.716,0-27.187-12.713-27.187-30.062
		c0-18.148,11.344-30.939,28.066-30.939C590.275,215.343,600.427,228.368,600.427,245.247z M556.284,246.127
		c0,11.99,6.082,21.494,16.39,21.494c10.483,0,16.312-9.583,16.312-21.983c0-11.108-5.517-21.572-16.312-21.572
		C562.053,224.065,556.284,233.885,556.284,246.127z"/>
	<path fill="#FFFFFF" d="M609.695,217.104c3.991-0.726,10.073-1.194,16.313-1.194c8.469,0,14.219,1.35,18.228,4.713
		c3.188,2.721,5.027,6.789,5.027,11.835c0,7.586-5.104,12.79-10.62,14.785v0.235c4.146,1.604,6.709,5.767,8.233,11.44
		c1.839,7.354,3.346,14.141,4.637,16.469h-11.196c-0.794-1.761-2.242-6.552-3.922-13.906c-1.684-7.764-4.481-10.249-10.542-10.404
		h-5.438v24.311h-10.719V217.104z M620.414,243.252h6.396c7.277,0,11.833-3.932,11.833-9.761c0-6.474-4.556-9.426-11.599-9.426
		c-3.442,0-5.593,0.234-6.63,0.469V243.252z"/>
	<path fill="#FFFFFF" d="M671.655,275.387v-24.624L652.937,216.3h12.323l7.119,15.196c1.995,4.303,3.434,7.668,5.025,11.756h0.158
		c1.524-3.854,3.206-7.53,5.201-11.756l7.119-15.196h12.147l-19.579,34.214v24.873H671.655z"/>
	<path fill="#FFFFFF" d="M738.561,258.585l-5.026,16.802h-11.207l18.951-59.087h13.75l19.187,59.087h-11.499l-5.359-16.802H738.561z
		 M755.518,250.514l-4.635-14.537c-1.213-3.599-2.172-7.687-3.051-11.13h-0.157c-0.88,3.443-1.761,7.61-2.796,11.13l-4.558,14.537
		H755.518z"/>
	<path fill="#FFFFFF" d="M782.449,275.387V216.3h12.323l15.181,25.349c4.006,6.552,7.446,13.435,10.164,19.832h0.157
		c-0.723-7.921-0.957-15.511-0.957-24.545V216.3h9.995v59.087h-11.169l-15.405-25.993c-3.82-6.475-7.731-13.75-10.608-20.381
		l-0.234,0.078c0.391,7.59,0.471,15.433,0.471,25.191v21.104H782.449z"/>
	<path fill="#FFFFFF" d="M841.689,217.104c4.713-0.804,10.797-1.194,17.191-1.194c11.031,0,18.718,2.229,24.129,6.787
		c5.698,4.636,9.22,11.677,9.22,21.748c0,10.464-3.6,18.386-9.22,23.51c-5.899,5.359-15.249,7.98-26.769,7.98
		c-6.317,0-11.03-0.313-14.552-0.705V217.104z M852.486,267.152c1.526,0.234,3.755,0.234,6.005,0.234
		c13.983,0.078,22.295-7.588,22.295-22.629c0.079-13.025-7.432-20.458-20.945-20.458c-3.441,0-5.828,0.234-7.354,0.547V267.152z"/>
	<path fill="#FFFFFF" d="M919.723,216.3h10.797v50.051h24.214v9.036h-35.011V216.3z"/>
	<path fill="#FFFFFF" d="M973.685,216.3v59.087h-10.797V216.3H973.685z"/>
	<path fill="#FFFFFF" d="M985.751,263.631c3.52,1.995,8.802,3.756,14.316,3.756c6.865,0,10.796-3.188,10.796-8.077
		c0-4.479-3.043-7.119-10.562-9.837c-9.756-3.424-15.901-8.626-15.901-17.095c0-9.682,8.015-17.035,20.854-17.035
		c6.41,0,11.125,1.447,14.155,2.952l-2.641,8.723c-2.073-1.114-6.239-2.795-11.754-2.795c-6.786,0-9.741,3.677-9.741,7.021
		c0,4.556,3.347,6.728,11.268,9.76c10.228,3.834,15.273,9.035,15.273,17.504c0,9.525-7.196,17.76-22.472,17.76
		c-6.239,0-12.714-1.761-15.9-3.679L985.751,263.631z"/>
	<path fill="#FFFFFF" d="M1042.839,225.337h-16.879V216.3h44.613v9.037h-16.938v50.05h-10.797V225.337z"/>
	<path fill="#FFFFFF" d="M1088.332,216.3v59.087h-10.796V216.3H1088.332z"/>
	<path fill="#FFFFFF" d="M1100.633,275.387V216.3h12.32l15.177,25.349c4.012,6.552,7.358,13.435,10.074,19.832h0.253
		c-0.722-7.921-0.958-15.511-0.958-24.545V216.3h9.898v59.087h-11.11l-15.43-25.993c-3.757-6.475-7.667-13.75-10.543-20.381
		l-0.265,0.078c0.42,7.59,0.499,15.433,0.499,25.191v21.104H1100.633z"/>
	<path fill="#FFFFFF" d="M1207.205,272.667c-3.754,1.351-11.107,3.268-19.03,3.268c-9.993,0-17.504-2.466-23.097-7.825
		c-5.281-5.046-8.313-12.791-8.234-21.748c0-18.619,13.26-30.706,32.857-30.706c7.275,0,12.947,1.525,15.666,2.796l-2.404,8.724
		c-3.19-1.447-7.102-2.563-13.34-2.563c-12.635,0-21.515,7.433-21.515,21.182c0,13.437,8.235,21.436,20.554,21.436
		c3.836,0,6.711-0.565,8.145-1.193v-14.805h-10.47v-8.468h20.868V272.667z"/>
</g>
<g>
	<path fill="none" stroke="#FF414D" stroke-width="19" stroke-linecap="round" stroke-linejoin="round" stroke-miterlimit="10" d="
		M260.965,157.289c0-64.354-52.14-116.498-116.498-116.498c-64.357,0-116.502,52.145-116.502,116.498
		c0,64.358,52.145,116.502,116.502,116.502C208.826,273.791,260.965,221.647,260.965,157.289z"/>
	<path fill="#FFFFFF" d="M152.923,157.291c0,4.643-3.737,8.458-8.456,8.458c-4.721,0-8.459-3.815-8.459-8.458
		c0-4.708,3.738-8.434,8.459-8.434C149.186,148.857,152.923,152.583,152.923,157.291z"/>
	<path fill="#FF414D" d="M151.971,41.444c0,3.545-3.377,6.259-7.504,6.259l0,0c-4.131,0-7.508-2.714-7.508-6.259V20.378
		c0-3.576,3.377-6.392,7.508-6.392l0,0c4.127,0,7.504,2.816,7.504,6.392V41.444z"/>
	<path fill="none" stroke="#FF414D" stroke-width="19" stroke-linecap="round" stroke-linejoin="round" stroke-miterlimit="10" d="
		M235.311,157.289c0-50.211-40.621-90.812-90.844-90.812c-50.118,0-90.847,40.601-90.847,90.812
		c0,50.141,40.729,90.847,90.847,90.847C194.69,248.136,235.311,207.43,235.311,157.289z"/>
	<g>
		<polygon fill="#FF414D" points="156.129,143.268 200.506,209.197 133.345,170.474 		"/>
		<polygon fill="#FF414D" points="133.345,170.474 88.972,104.524 156.129,143.268 		"/>
	</g>
	<g>
		
			<line fill="none" stroke="#FF414D" stroke-width="19" stroke-linecap="round" stroke-linejoin="round" stroke-miterlimit="10" x1="144.463" y1="80.209" x2="144.465" y2="102.938"/>
		
			<line fill="none" stroke="#FF414D" stroke-width="19" stroke-linecap="round" stroke-linejoin="round" stroke-miterlimit="10" x1="144.465" y1="210.728" x2="144.467" y2="233.456"/>
		
			<line fill="none" stroke="#FF414D" stroke-width="19" stroke-linecap="round" stroke-linejoin="round" stroke-miterlimit="10" x1="67.283" y1="162.346" x2="90.026" y2="162.346"/>
		
			<line fill="none" stroke="#FF414D" stroke-width="19" stroke-linecap="round" stroke-linejoin="round" stroke-miterlimit="10" x1="200.86" y1="157.291" x2="223.588" y2="157.291"/>
	</g>
</g>
</svg>
