<?xml version="1.0" encoding="utf-8"?>
<!-- Generator: Adobe Illustrator 16.0.0, SVG Export Plug-In . SVG Version: 6.00 Build 0)  -->
<!DOCTYPE svg PUBLIC "-//W3C//DTD SVG 1.1//EN" "http://www.w3.org/Graphics/SVG/1.1/DTD/svg11.dtd">
<svg version="1.1" id="Capa_1" xmlns="http://www.w3.org/2000/svg" xmlns:xlink="http://www.w3.org/1999/xlink" x="0px" y="0px"
	 width="30px" height="30px" viewBox="695 1485 30 30" enable-background="new 695 1485 30 30" xml:space="preserve">
<g>
	<g>
		<g>
			<path fill="#FFFFFF" d="M713.164,1496.133c-0.323,0-0.586,0.263-0.586,0.586s0.263,0.586,0.586,0.586s0.586-0.263,0.586-0.586
				S713.487,1496.133,713.164,1496.133z"/>
		</g>
	</g>
	<g>
		<g>
			<path fill="#FFFFFF" d="M724.313,1510.999l-7.821-7.821c1.274-1.919,1.945-4.141,1.945-6.459c0-6.462-5.257-11.719-11.719-11.719
				S695,1490.257,695,1496.719s5.257,11.719,11.719,11.719c2.318,0,4.54-0.672,6.459-1.945l2.162,2.162c0,0,0,0,0.001,0.001
				l5.658,5.658c0.442,0.442,1.031,0.687,1.657,0.687s1.215-0.244,1.656-0.687c0.443-0.442,0.688-1.031,0.688-1.657
				S724.756,1511.441,724.313,1510.999z M712.902,1505.258L712.902,1505.258c-1.809,1.313-3.947,2.008-6.184,2.008
				c-5.815,0-10.547-4.731-10.547-10.547s4.731-10.547,10.547-10.547s10.547,4.731,10.547,10.547c0,2.236-0.694,4.375-2.008,6.184
				C714.6,1503.809,713.809,1504.6,712.902,1505.258z M714.132,1505.789c0.606-0.496,1.161-1.051,1.657-1.657l1.662,1.662
				c-0.506,0.597-1.061,1.151-1.657,1.657L714.132,1505.789z M723.484,1513.484c-0.221,0.222-0.516,0.344-0.828,0.344
				s-0.607-0.122-0.828-0.344l-5.203-5.203c0.594-0.509,1.147-1.063,1.656-1.656l5.203,5.203c0.222,0.221,0.344,0.516,0.344,0.828
				S723.706,1513.264,723.484,1513.484z"/>
		</g>
	</g>
	<g>
		<g>
			<path fill="#FFFFFF" d="M706.719,1487.344c-5.17,0-9.375,4.205-9.375,9.375s4.205,9.375,9.375,9.375s9.375-4.205,9.375-9.375
				S711.889,1487.344,706.719,1487.344z M706.719,1504.922c-4.523,0-8.203-3.68-8.203-8.203s3.68-8.203,8.203-8.203
				s8.203,3.68,8.203,8.203S711.242,1504.922,706.719,1504.922z"/>
		</g>
	</g>
	<g>
		<g>
			<path fill="#FFFFFF" d="M713.285,1494.203c-0.505-1.313-1.383-2.436-2.541-3.246c-1.185-0.83-2.577-1.27-4.025-1.27
				c-0.324,0-0.586,0.262-0.586,0.586s0.262,0.586,0.586,0.586c2.408,0,4.607,1.513,5.473,3.765c0.09,0.233,0.312,0.376,0.547,0.376
				c0.07,0,0.141-0.013,0.21-0.039C713.25,1494.845,713.401,1494.506,713.285,1494.203z"/>
		</g>
	</g>
</g>
</svg>
