<?xml version="1.0"?>
<svg xmlns="http://www.w3.org/2000/svg" xmlns:xlink="http://www.w3.org/1999/xlink" xmlns:svgjs="http://svgjs.com/svgjs" version="1.1" width="512" height="512" x="0" y="0" viewBox="0 0 511.801 511.801" style="enable-background:new 0 0 512 512" xml:space="preserve" class=""><g><g xmlns="http://www.w3.org/2000/svg"><path d="m292.348 496.401v15h219.454l-5.135-10.736c-14.307-29.914-23.646-64.488-28.553-105.701l-14.895 1.773c4.532 38.067 12.755 70.807 25.063 99.663h-41.593c-22.177-48.875-27.06-103.789-28.061-156.814 3.888 1.175 8.006 1.814 12.272 1.814 10.695 0 20.472-3.98 27.95-10.525.422 16.883 1.231 33.741 2.783 50.737l14.938-1.364c-2.741-30.019-3.129-59.812-3.167-90.139 8.727-3.097 14.996-11.433 14.996-21.209 0-12.407-10.093-22.5-22.5-22.5h-8.384c-79.04-35.321-127.702-78.251-154.64-108.131-25.544-28.333-36.896-50.561-39.476-56v-20.868h60v-61h-75v13.5 47.5 20.867c-2.803 5.908-15.89 31.469-46.154 63.202l10.854 10.353c22.209-23.286 35.601-43.323 42.801-55.723 6.345 10.923 17.496 27.775 35.244 47.56 17.169 19.139 42.85 43.397 79.069 67.742h-34.314v15h58.045c9.082 5.399 18.697 10.752 28.899 16h-239.086v15h282.142c4.136 0 7.5 3.364 7.5 7.5s-3.364 7.5-7.5 7.5h-420c-4.136 0-7.5-3.364-7.5-7.5s3.364-7.5 7.5-7.5h122.857v-15h-79.77c43.762-22.458 81.79-49.189 113.334-79.722l-10.433-10.778c-36.969 35.784-83.269 66.221-137.613 90.5h-8.375c-12.407 0-22.5 10.093-22.5 22.5 0 9.777 6.27 18.113 14.999 21.21-.032 64.477-1.041 143.177-33.265 210.555l-5.134 10.734h277.348v-15h-83.948v-16h32.5v-15h-32.5v-16h15.5v-15h-15.5v-6.5c0-34.462 28.038-62.5 62.5-62.5s62.5 28.038 62.5 62.5v68.5zm-28.948-481h45v31h-45zm140 276h55v7.5c0 15.164-12.336 27.5-27.5 27.5s-27.5-12.336-27.5-27.5zm-7.5 31.571c2.153 3.121 4.713 5.94 7.602 8.382.654 55.069 4.709 112.719 26.806 165.046h-38.621c-22.308-49.12-26.988-103.257-28.023-155.1 13.36-.862 25.055-7.919 32.236-18.328zm-62.5-31.571h55v7.5c0 15.164-12.336 27.5-27.5 27.5s-27.5-12.336-27.5-27.5zm-70 0h55v7.5c0 15.164-12.336 27.5-27.5 27.5s-27.5-12.336-27.5-27.5zm-70 0h55v7.5c0 15.164-12.336 27.5-27.5 27.5s-27.5-12.336-27.5-27.5zm-70 0h55v7.5c0 15.164-12.336 27.5-27.5 27.5s-27.5-12.336-27.5-27.5zm-70 0h55v7.5c0 15.164-12.336 27.5-27.5 27.5s-27.5-12.336-27.5-27.5zm-29.88 205c22.875-53.609 28.233-112.275 29.491-165.473 7.47 6.514 17.224 10.473 27.89 10.473 4.266 0 8.384-.639 12.272-1.814-1.001 53.024-5.884 107.938-28.061 156.814zm57.973 0c22.097-52.328 26.151-109.977 26.806-165.046 2.889-2.443 5.448-5.261 7.602-8.382 7.181 10.409 18.876 17.466 32.237 18.329-1.036 51.843-5.715 105.98-28.023 155.1h-38.622zm174.407-146c-42.734 0-77.5 34.766-77.5 77.5v68.5h-41.904c21.351-50.46 25.731-104.871 26.679-156.814 9.329-2.82 17.31-8.765 22.726-16.614 7.673 11.121 20.496 18.429 35 18.429s27.327-7.307 35-18.429c7.673 11.121 20.496 18.429 35 18.429s27.327-7.307 35-18.429c5.415 7.85 13.397 13.794 22.726 16.614.948 51.943 5.328 106.355 26.679 156.814h-41.906v-68.5c0-42.734-34.766-77.5-77.5-77.5z" fill="#ff414d" data-original="#000000" style=""/><path d="m305.9 215.401h15v15h-15z" fill="#ff414d" data-original="#000000" style=""/><path d="m240.9 465.401h15v15h-15z" fill="#ff414d" data-original="#000000" style=""/><path d="m275.9 215.401h15v15h-15z" fill="#ff414d" data-original="#000000" style=""/></g></g></svg>
